<mxfile host="Electron" modified="2023-04-20T20:11:27.103Z" agent="Mozilla/5.0 (Windows NT 10.0; Win64; x64) AppleWebKit/537.36 (KHTML, like Gecko) draw.io/21.2.1 Chrome/112.0.5615.87 Electron/24.1.2 Safari/537.36" etag="GH-CEvcwb7tQXbm_JFvu" version="21.2.1" type="device">
  <diagram id="C5RBs43oDa-KdzZeNtuy" name="Page-1">
    <mxGraphModel dx="1687" dy="993" grid="1" gridSize="10" guides="1" tooltips="1" connect="1" arrows="1" fold="1" page="1" pageScale="1" pageWidth="827" pageHeight="1169" math="0" shadow="0">
      <root>
        <mxCell id="WIyWlLk6GJQsqaUBKTNV-0" />
        <mxCell id="WIyWlLk6GJQsqaUBKTNV-1" parent="WIyWlLk6GJQsqaUBKTNV-0" />
        <mxCell id="xDa_9qn_PGSCsNxLzw7h-45" value="" style="endArrow=open;endSize=12;dashed=1;html=1;rounded=0;edgeStyle=orthogonalEdgeStyle;" parent="WIyWlLk6GJQsqaUBKTNV-1" source="xDa_9qn_PGSCsNxLzw7h-1" target="xDa_9qn_PGSCsNxLzw7h-35" edge="1">
          <mxGeometry x="-0.0133" width="160" relative="1" as="geometry">
            <mxPoint x="1080" y="455" as="sourcePoint" />
            <mxPoint x="1525" y="500" as="targetPoint" />
            <Array as="points">
              <mxPoint x="980" y="300" />
              <mxPoint x="980" y="390" />
              <mxPoint x="1640" y="390" />
            </Array>
            <mxPoint as="offset" />
          </mxGeometry>
        </mxCell>
        <mxCell id="xDa_9qn_PGSCsNxLzw7h-44" value="" style="endArrow=open;endSize=12;dashed=1;html=1;rounded=0;edgeStyle=orthogonalEdgeStyle;" parent="WIyWlLk6GJQsqaUBKTNV-1" source="xDa_9qn_PGSCsNxLzw7h-1" target="xDa_9qn_PGSCsNxLzw7h-31" edge="1">
          <mxGeometry x="0.1379" width="160" relative="1" as="geometry">
            <mxPoint x="1260" y="530" as="sourcePoint" />
            <mxPoint x="1370" y="530" as="targetPoint" />
            <Array as="points">
              <mxPoint x="980" y="300" />
              <mxPoint x="980" y="390" />
              <mxPoint x="1410" y="390" />
            </Array>
            <mxPoint as="offset" />
          </mxGeometry>
        </mxCell>
        <mxCell id="xDa_9qn_PGSCsNxLzw7h-0" value="&lt;p style=&quot;margin:0px;margin-top:4px;text-align:center;&quot;&gt;&lt;i&gt;&amp;lt;&amp;lt;Interface&amp;gt;&amp;gt;&lt;/i&gt;&lt;br&gt;&lt;b&gt;DocumentTemplateFactory&lt;/b&gt;&lt;br&gt;&lt;/p&gt;&lt;hr size=&quot;1&quot;&gt;&lt;p style=&quot;margin:0px;margin-left:4px;&quot;&gt;&lt;/p&gt;&lt;p style=&quot;margin:0px;margin-left:4px;&quot;&gt;+ createHTML()&lt;br&gt;+ createPDF()&lt;br&gt;+ createPPT()&lt;br&gt;&lt;/p&gt;" style="verticalAlign=top;align=left;overflow=fill;fontSize=12;fontFamily=Helvetica;html=1;whiteSpace=wrap;" parent="WIyWlLk6GJQsqaUBKTNV-1" vertex="1">
          <mxGeometry x="700" y="70" width="190" height="110" as="geometry" />
        </mxCell>
        <mxCell id="xDa_9qn_PGSCsNxLzw7h-1" value="ModernStyleTemplateFactory" style="swimlane;fontStyle=1;align=center;verticalAlign=top;childLayout=stackLayout;horizontal=1;startSize=26;horizontalStack=0;resizeParent=1;resizeParentMax=0;resizeLast=0;collapsible=1;marginBottom=0;whiteSpace=wrap;html=1;" parent="WIyWlLk6GJQsqaUBKTNV-1" vertex="1">
          <mxGeometry x="720" y="240" width="240" height="120" as="geometry" />
        </mxCell>
        <mxCell id="xDa_9qn_PGSCsNxLzw7h-2" value="..." style="text;strokeColor=none;fillColor=none;align=left;verticalAlign=top;spacingLeft=4;spacingRight=4;overflow=hidden;rotatable=0;points=[[0,0.5],[1,0.5]];portConstraint=eastwest;whiteSpace=wrap;html=1;" parent="xDa_9qn_PGSCsNxLzw7h-1" vertex="1">
          <mxGeometry y="26" width="240" height="26" as="geometry" />
        </mxCell>
        <mxCell id="xDa_9qn_PGSCsNxLzw7h-3" value="" style="line;strokeWidth=1;fillColor=none;align=left;verticalAlign=middle;spacingTop=-1;spacingLeft=3;spacingRight=3;rotatable=0;labelPosition=right;points=[];portConstraint=eastwest;strokeColor=inherit;" parent="xDa_9qn_PGSCsNxLzw7h-1" vertex="1">
          <mxGeometry y="52" width="240" height="8" as="geometry" />
        </mxCell>
        <mxCell id="xDa_9qn_PGSCsNxLzw7h-4" value="+ createHTML()&lt;br style=&quot;border-color: var(--border-color);&quot;&gt;+ createPDF()&lt;br style=&quot;border-color: var(--border-color);&quot;&gt;+ createPPT()" style="text;strokeColor=none;fillColor=none;align=left;verticalAlign=top;spacingLeft=4;spacingRight=4;overflow=hidden;rotatable=0;points=[[0,0.5],[1,0.5]];portConstraint=eastwest;whiteSpace=wrap;html=1;" parent="xDa_9qn_PGSCsNxLzw7h-1" vertex="1">
          <mxGeometry y="60" width="240" height="60" as="geometry" />
        </mxCell>
        <mxCell id="xDa_9qn_PGSCsNxLzw7h-5" value="ClassicStyleTemplateFactory" style="swimlane;fontStyle=1;align=center;verticalAlign=top;childLayout=stackLayout;horizontal=1;startSize=26;horizontalStack=0;resizeParent=1;resizeParentMax=0;resizeLast=0;collapsible=1;marginBottom=0;whiteSpace=wrap;html=1;" parent="WIyWlLk6GJQsqaUBKTNV-1" vertex="1">
          <mxGeometry x="720" y="440" width="240" height="120" as="geometry" />
        </mxCell>
        <mxCell id="xDa_9qn_PGSCsNxLzw7h-6" value="..." style="text;strokeColor=none;fillColor=none;align=left;verticalAlign=top;spacingLeft=4;spacingRight=4;overflow=hidden;rotatable=0;points=[[0,0.5],[1,0.5]];portConstraint=eastwest;whiteSpace=wrap;html=1;" parent="xDa_9qn_PGSCsNxLzw7h-5" vertex="1">
          <mxGeometry y="26" width="240" height="26" as="geometry" />
        </mxCell>
        <mxCell id="xDa_9qn_PGSCsNxLzw7h-7" value="" style="line;strokeWidth=1;fillColor=none;align=left;verticalAlign=middle;spacingTop=-1;spacingLeft=3;spacingRight=3;rotatable=0;labelPosition=right;points=[];portConstraint=eastwest;strokeColor=inherit;" parent="xDa_9qn_PGSCsNxLzw7h-5" vertex="1">
          <mxGeometry y="52" width="240" height="8" as="geometry" />
        </mxCell>
        <mxCell id="xDa_9qn_PGSCsNxLzw7h-8" value="+ createHTML()&lt;br style=&quot;border-color: var(--border-color);&quot;&gt;+ createPDF()&lt;br style=&quot;border-color: var(--border-color);&quot;&gt;+ createPPT()" style="text;strokeColor=none;fillColor=none;align=left;verticalAlign=top;spacingLeft=4;spacingRight=4;overflow=hidden;rotatable=0;points=[[0,0.5],[1,0.5]];portConstraint=eastwest;whiteSpace=wrap;html=1;" parent="xDa_9qn_PGSCsNxLzw7h-5" vertex="1">
          <mxGeometry y="60" width="240" height="60" as="geometry" />
        </mxCell>
        <mxCell id="xDa_9qn_PGSCsNxLzw7h-9" value="MinimalisticStyleTemplateFactory" style="swimlane;fontStyle=1;align=center;verticalAlign=top;childLayout=stackLayout;horizontal=1;startSize=26;horizontalStack=0;resizeParent=1;resizeParentMax=0;resizeLast=0;collapsible=1;marginBottom=0;whiteSpace=wrap;html=1;" parent="WIyWlLk6GJQsqaUBKTNV-1" vertex="1">
          <mxGeometry x="720" y="645" width="240" height="120" as="geometry" />
        </mxCell>
        <mxCell id="xDa_9qn_PGSCsNxLzw7h-10" value="..." style="text;strokeColor=none;fillColor=none;align=left;verticalAlign=top;spacingLeft=4;spacingRight=4;overflow=hidden;rotatable=0;points=[[0,0.5],[1,0.5]];portConstraint=eastwest;whiteSpace=wrap;html=1;" parent="xDa_9qn_PGSCsNxLzw7h-9" vertex="1">
          <mxGeometry y="26" width="240" height="26" as="geometry" />
        </mxCell>
        <mxCell id="xDa_9qn_PGSCsNxLzw7h-11" value="" style="line;strokeWidth=1;fillColor=none;align=left;verticalAlign=middle;spacingTop=-1;spacingLeft=3;spacingRight=3;rotatable=0;labelPosition=right;points=[];portConstraint=eastwest;strokeColor=inherit;" parent="xDa_9qn_PGSCsNxLzw7h-9" vertex="1">
          <mxGeometry y="52" width="240" height="8" as="geometry" />
        </mxCell>
        <mxCell id="xDa_9qn_PGSCsNxLzw7h-12" value="+ createHTML()&lt;br style=&quot;border-color: var(--border-color);&quot;&gt;+ createPDF()&lt;br style=&quot;border-color: var(--border-color);&quot;&gt;+ createPPT()" style="text;strokeColor=none;fillColor=none;align=left;verticalAlign=top;spacingLeft=4;spacingRight=4;overflow=hidden;rotatable=0;points=[[0,0.5],[1,0.5]];portConstraint=eastwest;whiteSpace=wrap;html=1;" parent="xDa_9qn_PGSCsNxLzw7h-9" vertex="1">
          <mxGeometry y="60" width="240" height="60" as="geometry" />
        </mxCell>
        <mxCell id="xDa_9qn_PGSCsNxLzw7h-13" value="" style="endArrow=block;endSize=16;endFill=0;html=1;rounded=0;edgeStyle=orthogonalEdgeStyle;" parent="WIyWlLk6GJQsqaUBKTNV-1" source="xDa_9qn_PGSCsNxLzw7h-1" target="xDa_9qn_PGSCsNxLzw7h-0" edge="1">
          <mxGeometry width="160" relative="1" as="geometry">
            <mxPoint x="594" y="480" as="sourcePoint" />
            <mxPoint x="754" y="480" as="targetPoint" />
            <Array as="points">
              <mxPoint x="680" y="320" />
              <mxPoint x="680" y="220" />
              <mxPoint x="795" y="220" />
            </Array>
          </mxGeometry>
        </mxCell>
        <mxCell id="xDa_9qn_PGSCsNxLzw7h-14" value="" style="endArrow=block;endSize=16;endFill=0;html=1;rounded=0;edgeStyle=orthogonalEdgeStyle;" parent="WIyWlLk6GJQsqaUBKTNV-1" source="xDa_9qn_PGSCsNxLzw7h-5" target="xDa_9qn_PGSCsNxLzw7h-0" edge="1">
          <mxGeometry width="160" relative="1" as="geometry">
            <mxPoint x="790" y="530" as="sourcePoint" />
            <mxPoint x="950" y="530" as="targetPoint" />
            <Array as="points">
              <mxPoint x="680" y="520" />
              <mxPoint x="680" y="220" />
              <mxPoint x="795" y="220" />
            </Array>
          </mxGeometry>
        </mxCell>
        <mxCell id="xDa_9qn_PGSCsNxLzw7h-15" value="" style="endArrow=block;endSize=16;endFill=0;html=1;rounded=0;edgeStyle=orthogonalEdgeStyle;" parent="WIyWlLk6GJQsqaUBKTNV-1" source="xDa_9qn_PGSCsNxLzw7h-9" target="xDa_9qn_PGSCsNxLzw7h-0" edge="1">
          <mxGeometry width="160" relative="1" as="geometry">
            <mxPoint x="1060" y="610" as="sourcePoint" />
            <mxPoint x="1220" y="610" as="targetPoint" />
            <Array as="points">
              <mxPoint x="680" y="720" />
              <mxPoint x="680" y="220" />
              <mxPoint x="795" y="220" />
            </Array>
          </mxGeometry>
        </mxCell>
        <mxCell id="xDa_9qn_PGSCsNxLzw7h-17" value="Client" style="swimlane;fontStyle=1;align=center;verticalAlign=top;childLayout=stackLayout;horizontal=1;startSize=26;horizontalStack=0;resizeParent=1;resizeParentMax=0;resizeLast=0;collapsible=1;marginBottom=0;whiteSpace=wrap;html=1;" parent="WIyWlLk6GJQsqaUBKTNV-1" vertex="1">
          <mxGeometry x="362" y="65" width="216" height="120" as="geometry" />
        </mxCell>
        <mxCell id="xDa_9qn_PGSCsNxLzw7h-18" value="- factory:&amp;nbsp;DocumentTemplateFactory" style="text;strokeColor=none;fillColor=none;align=left;verticalAlign=top;spacingLeft=4;spacingRight=4;overflow=hidden;rotatable=0;points=[[0,0.5],[1,0.5]];portConstraint=eastwest;whiteSpace=wrap;html=1;" parent="xDa_9qn_PGSCsNxLzw7h-17" vertex="1">
          <mxGeometry y="26" width="216" height="26" as="geometry" />
        </mxCell>
        <mxCell id="xDa_9qn_PGSCsNxLzw7h-19" value="" style="line;strokeWidth=1;fillColor=none;align=left;verticalAlign=middle;spacingTop=-1;spacingLeft=3;spacingRight=3;rotatable=0;labelPosition=right;points=[];portConstraint=eastwest;strokeColor=inherit;" parent="xDa_9qn_PGSCsNxLzw7h-17" vertex="1">
          <mxGeometry y="52" width="216" height="8" as="geometry" />
        </mxCell>
        <mxCell id="xDa_9qn_PGSCsNxLzw7h-20" value="...&lt;br&gt;+ generateTemplates()" style="text;strokeColor=none;fillColor=none;align=left;verticalAlign=top;spacingLeft=4;spacingRight=4;overflow=hidden;rotatable=0;points=[[0,0.5],[1,0.5]];portConstraint=eastwest;whiteSpace=wrap;html=1;" parent="xDa_9qn_PGSCsNxLzw7h-17" vertex="1">
          <mxGeometry y="60" width="216" height="60" as="geometry" />
        </mxCell>
        <mxCell id="xDa_9qn_PGSCsNxLzw7h-23" value="" style="endArrow=diamondThin;endFill=1;endSize=24;html=1;rounded=0;" parent="WIyWlLk6GJQsqaUBKTNV-1" source="xDa_9qn_PGSCsNxLzw7h-0" target="xDa_9qn_PGSCsNxLzw7h-17" edge="1">
          <mxGeometry width="160" relative="1" as="geometry">
            <mxPoint x="530" y="230" as="sourcePoint" />
            <mxPoint x="690" y="230" as="targetPoint" />
          </mxGeometry>
        </mxCell>
        <mxCell id="xDa_9qn_PGSCsNxLzw7h-24" value="&amp;nbsp; void generateTemplates() {&lt;br&gt;&lt;blockquote style=&quot;margin: 0 0 0 40px; border: none; padding: 0px;&quot;&gt; // ...&lt;br&gt; factory.createHTML();&lt;br&gt; factory.createPDF();&lt;br&gt; factory.createPPT();&lt;br&gt; // ...&lt;/blockquote&gt;  &amp;nbsp; }" style="shape=note;whiteSpace=wrap;html=1;backgroundOutline=1;darkOpacity=0.05;align=left;verticalAlign=top;size=19;" parent="WIyWlLk6GJQsqaUBKTNV-1" vertex="1">
          <mxGeometry x="414" y="240" width="200" height="120" as="geometry" />
        </mxCell>
        <mxCell id="xDa_9qn_PGSCsNxLzw7h-25" value="" style="endArrow=none;dashed=1;html=1;rounded=0;" parent="WIyWlLk6GJQsqaUBKTNV-1" source="xDa_9qn_PGSCsNxLzw7h-24" target="xDa_9qn_PGSCsNxLzw7h-17" edge="1">
          <mxGeometry width="50" height="50" relative="1" as="geometry">
            <mxPoint x="590" y="270" as="sourcePoint" />
            <mxPoint x="640" y="220" as="targetPoint" />
          </mxGeometry>
        </mxCell>
        <mxCell id="xDa_9qn_PGSCsNxLzw7h-26" value="&lt;p style=&quot;margin:0px;margin-top:4px;text-align:center;&quot;&gt;&lt;i&gt;&amp;lt;&amp;lt;Interface&amp;gt;&amp;gt;&lt;/i&gt;&lt;br&gt;&lt;b&gt;DocumentTemplate&lt;/b&gt;&lt;br&gt;&lt;/p&gt;&lt;hr size=&quot;1&quot;&gt;&lt;p style=&quot;margin:0px;margin-left:4px;&quot;&gt;&lt;/p&gt;&lt;p style=&quot;margin:0px;margin-left:4px;&quot;&gt;...&lt;/p&gt;" style="verticalAlign=top;align=left;overflow=fill;fontSize=12;fontFamily=Helvetica;html=1;whiteSpace=wrap;" parent="WIyWlLk6GJQsqaUBKTNV-1" vertex="1">
          <mxGeometry x="1080" y="70" width="190" height="110" as="geometry" />
        </mxCell>
        <mxCell id="xDa_9qn_PGSCsNxLzw7h-27" value="ModernStyleHtmlDocument" style="swimlane;fontStyle=1;align=center;verticalAlign=top;childLayout=stackLayout;horizontal=1;startSize=26;horizontalStack=0;resizeParent=1;resizeParentMax=0;resizeLast=0;collapsible=1;marginBottom=0;whiteSpace=wrap;html=1;" parent="WIyWlLk6GJQsqaUBKTNV-1" vertex="1">
          <mxGeometry x="1070" y="255" width="210" height="90" as="geometry" />
        </mxCell>
        <mxCell id="xDa_9qn_PGSCsNxLzw7h-28" value="..." style="text;strokeColor=none;fillColor=none;align=left;verticalAlign=top;spacingLeft=4;spacingRight=4;overflow=hidden;rotatable=0;points=[[0,0.5],[1,0.5]];portConstraint=eastwest;whiteSpace=wrap;html=1;" parent="xDa_9qn_PGSCsNxLzw7h-27" vertex="1">
          <mxGeometry y="26" width="210" height="26" as="geometry" />
        </mxCell>
        <mxCell id="xDa_9qn_PGSCsNxLzw7h-29" value="" style="line;strokeWidth=1;fillColor=none;align=left;verticalAlign=middle;spacingTop=-1;spacingLeft=3;spacingRight=3;rotatable=0;labelPosition=right;points=[];portConstraint=eastwest;strokeColor=inherit;" parent="xDa_9qn_PGSCsNxLzw7h-27" vertex="1">
          <mxGeometry y="52" width="210" height="8" as="geometry" />
        </mxCell>
        <mxCell id="xDa_9qn_PGSCsNxLzw7h-30" value="..." style="text;strokeColor=none;fillColor=none;align=left;verticalAlign=top;spacingLeft=4;spacingRight=4;overflow=hidden;rotatable=0;points=[[0,0.5],[1,0.5]];portConstraint=eastwest;whiteSpace=wrap;html=1;" parent="xDa_9qn_PGSCsNxLzw7h-27" vertex="1">
          <mxGeometry y="60" width="210" height="30" as="geometry" />
        </mxCell>
        <mxCell id="xDa_9qn_PGSCsNxLzw7h-31" value="ModernStylePdfDocument" style="swimlane;fontStyle=1;align=center;verticalAlign=top;childLayout=stackLayout;horizontal=1;startSize=26;horizontalStack=0;resizeParent=1;resizeParentMax=0;resizeLast=0;collapsible=1;marginBottom=0;whiteSpace=wrap;html=1;" parent="WIyWlLk6GJQsqaUBKTNV-1" vertex="1">
          <mxGeometry x="1300" y="255" width="210" height="90" as="geometry" />
        </mxCell>
        <mxCell id="xDa_9qn_PGSCsNxLzw7h-32" value="..." style="text;strokeColor=none;fillColor=none;align=left;verticalAlign=top;spacingLeft=4;spacingRight=4;overflow=hidden;rotatable=0;points=[[0,0.5],[1,0.5]];portConstraint=eastwest;whiteSpace=wrap;html=1;" parent="xDa_9qn_PGSCsNxLzw7h-31" vertex="1">
          <mxGeometry y="26" width="210" height="26" as="geometry" />
        </mxCell>
        <mxCell id="xDa_9qn_PGSCsNxLzw7h-33" value="" style="line;strokeWidth=1;fillColor=none;align=left;verticalAlign=middle;spacingTop=-1;spacingLeft=3;spacingRight=3;rotatable=0;labelPosition=right;points=[];portConstraint=eastwest;strokeColor=inherit;" parent="xDa_9qn_PGSCsNxLzw7h-31" vertex="1">
          <mxGeometry y="52" width="210" height="8" as="geometry" />
        </mxCell>
        <mxCell id="xDa_9qn_PGSCsNxLzw7h-34" value="..." style="text;strokeColor=none;fillColor=none;align=left;verticalAlign=top;spacingLeft=4;spacingRight=4;overflow=hidden;rotatable=0;points=[[0,0.5],[1,0.5]];portConstraint=eastwest;whiteSpace=wrap;html=1;" parent="xDa_9qn_PGSCsNxLzw7h-31" vertex="1">
          <mxGeometry y="60" width="210" height="30" as="geometry" />
        </mxCell>
        <mxCell id="xDa_9qn_PGSCsNxLzw7h-35" value="ModernStylePPTDocument" style="swimlane;fontStyle=1;align=center;verticalAlign=top;childLayout=stackLayout;horizontal=1;startSize=26;horizontalStack=0;resizeParent=1;resizeParentMax=0;resizeLast=0;collapsible=1;marginBottom=0;whiteSpace=wrap;html=1;" parent="WIyWlLk6GJQsqaUBKTNV-1" vertex="1">
          <mxGeometry x="1530" y="255" width="210" height="90" as="geometry" />
        </mxCell>
        <mxCell id="xDa_9qn_PGSCsNxLzw7h-36" value="..." style="text;strokeColor=none;fillColor=none;align=left;verticalAlign=top;spacingLeft=4;spacingRight=4;overflow=hidden;rotatable=0;points=[[0,0.5],[1,0.5]];portConstraint=eastwest;whiteSpace=wrap;html=1;" parent="xDa_9qn_PGSCsNxLzw7h-35" vertex="1">
          <mxGeometry y="26" width="210" height="26" as="geometry" />
        </mxCell>
        <mxCell id="xDa_9qn_PGSCsNxLzw7h-37" value="" style="line;strokeWidth=1;fillColor=none;align=left;verticalAlign=middle;spacingTop=-1;spacingLeft=3;spacingRight=3;rotatable=0;labelPosition=right;points=[];portConstraint=eastwest;strokeColor=inherit;" parent="xDa_9qn_PGSCsNxLzw7h-35" vertex="1">
          <mxGeometry y="52" width="210" height="8" as="geometry" />
        </mxCell>
        <mxCell id="xDa_9qn_PGSCsNxLzw7h-38" value="..." style="text;strokeColor=none;fillColor=none;align=left;verticalAlign=top;spacingLeft=4;spacingRight=4;overflow=hidden;rotatable=0;points=[[0,0.5],[1,0.5]];portConstraint=eastwest;whiteSpace=wrap;html=1;" parent="xDa_9qn_PGSCsNxLzw7h-35" vertex="1">
          <mxGeometry y="60" width="210" height="30" as="geometry" />
        </mxCell>
        <mxCell id="xDa_9qn_PGSCsNxLzw7h-40" value="" style="endArrow=block;endSize=16;endFill=0;html=1;rounded=0;edgeStyle=orthogonalEdgeStyle;" parent="WIyWlLk6GJQsqaUBKTNV-1" source="xDa_9qn_PGSCsNxLzw7h-27" target="xDa_9qn_PGSCsNxLzw7h-26" edge="1">
          <mxGeometry width="160" relative="1" as="geometry">
            <mxPoint x="1617.5" y="520" as="sourcePoint" />
            <mxPoint x="1692.5" y="100" as="targetPoint" />
            <Array as="points">
              <mxPoint x="1180" y="240" />
              <mxPoint x="1180" y="240" />
            </Array>
          </mxGeometry>
        </mxCell>
        <mxCell id="xDa_9qn_PGSCsNxLzw7h-41" value="" style="endArrow=block;endSize=16;endFill=0;html=1;rounded=0;edgeStyle=orthogonalEdgeStyle;" parent="WIyWlLk6GJQsqaUBKTNV-1" source="xDa_9qn_PGSCsNxLzw7h-31" target="xDa_9qn_PGSCsNxLzw7h-26" edge="1">
          <mxGeometry width="160" relative="1" as="geometry">
            <mxPoint x="1185" y="265" as="sourcePoint" />
            <mxPoint x="1185" y="190" as="targetPoint" />
            <Array as="points">
              <mxPoint x="1410" y="230" />
              <mxPoint x="1180" y="230" />
            </Array>
          </mxGeometry>
        </mxCell>
        <mxCell id="xDa_9qn_PGSCsNxLzw7h-42" value="" style="endArrow=block;endSize=16;endFill=0;html=1;rounded=0;edgeStyle=orthogonalEdgeStyle;" parent="WIyWlLk6GJQsqaUBKTNV-1" source="xDa_9qn_PGSCsNxLzw7h-35" target="xDa_9qn_PGSCsNxLzw7h-26" edge="1">
          <mxGeometry width="160" relative="1" as="geometry">
            <mxPoint x="1690" y="195" as="sourcePoint" />
            <mxPoint x="1460" y="120" as="targetPoint" />
            <Array as="points">
              <mxPoint x="1640" y="230" />
              <mxPoint x="1180" y="230" />
            </Array>
          </mxGeometry>
        </mxCell>
        <mxCell id="xDa_9qn_PGSCsNxLzw7h-43" value="Creates" style="endArrow=open;endSize=12;dashed=1;html=1;rounded=0;edgeStyle=orthogonalEdgeStyle;" parent="WIyWlLk6GJQsqaUBKTNV-1" source="xDa_9qn_PGSCsNxLzw7h-1" target="xDa_9qn_PGSCsNxLzw7h-27" edge="1">
          <mxGeometry width="160" relative="1" as="geometry">
            <mxPoint x="1140" y="460" as="sourcePoint" />
            <mxPoint x="1300" y="470" as="targetPoint" />
          </mxGeometry>
        </mxCell>
        <mxCell id="xDa_9qn_PGSCsNxLzw7h-46" value="ClassicStyleHtmlDocument" style="swimlane;fontStyle=1;align=center;verticalAlign=top;childLayout=stackLayout;horizontal=1;startSize=26;horizontalStack=0;resizeParent=1;resizeParentMax=0;resizeLast=0;collapsible=1;marginBottom=0;whiteSpace=wrap;html=1;" parent="WIyWlLk6GJQsqaUBKTNV-1" vertex="1">
          <mxGeometry x="1070" y="455" width="210" height="90" as="geometry" />
        </mxCell>
        <mxCell id="xDa_9qn_PGSCsNxLzw7h-47" value="..." style="text;strokeColor=none;fillColor=none;align=left;verticalAlign=top;spacingLeft=4;spacingRight=4;overflow=hidden;rotatable=0;points=[[0,0.5],[1,0.5]];portConstraint=eastwest;whiteSpace=wrap;html=1;" parent="xDa_9qn_PGSCsNxLzw7h-46" vertex="1">
          <mxGeometry y="26" width="210" height="26" as="geometry" />
        </mxCell>
        <mxCell id="xDa_9qn_PGSCsNxLzw7h-48" value="" style="line;strokeWidth=1;fillColor=none;align=left;verticalAlign=middle;spacingTop=-1;spacingLeft=3;spacingRight=3;rotatable=0;labelPosition=right;points=[];portConstraint=eastwest;strokeColor=inherit;" parent="xDa_9qn_PGSCsNxLzw7h-46" vertex="1">
          <mxGeometry y="52" width="210" height="8" as="geometry" />
        </mxCell>
        <mxCell id="xDa_9qn_PGSCsNxLzw7h-49" value="..." style="text;strokeColor=none;fillColor=none;align=left;verticalAlign=top;spacingLeft=4;spacingRight=4;overflow=hidden;rotatable=0;points=[[0,0.5],[1,0.5]];portConstraint=eastwest;whiteSpace=wrap;html=1;" parent="xDa_9qn_PGSCsNxLzw7h-46" vertex="1">
          <mxGeometry y="60" width="210" height="30" as="geometry" />
        </mxCell>
        <mxCell id="xDa_9qn_PGSCsNxLzw7h-50" value="ClassicStylePdfDocument" style="swimlane;fontStyle=1;align=center;verticalAlign=top;childLayout=stackLayout;horizontal=1;startSize=26;horizontalStack=0;resizeParent=1;resizeParentMax=0;resizeLast=0;collapsible=1;marginBottom=0;whiteSpace=wrap;html=1;" parent="WIyWlLk6GJQsqaUBKTNV-1" vertex="1">
          <mxGeometry x="1300" y="455" width="210" height="90" as="geometry" />
        </mxCell>
        <mxCell id="xDa_9qn_PGSCsNxLzw7h-51" value="..." style="text;strokeColor=none;fillColor=none;align=left;verticalAlign=top;spacingLeft=4;spacingRight=4;overflow=hidden;rotatable=0;points=[[0,0.5],[1,0.5]];portConstraint=eastwest;whiteSpace=wrap;html=1;" parent="xDa_9qn_PGSCsNxLzw7h-50" vertex="1">
          <mxGeometry y="26" width="210" height="26" as="geometry" />
        </mxCell>
        <mxCell id="xDa_9qn_PGSCsNxLzw7h-52" value="" style="line;strokeWidth=1;fillColor=none;align=left;verticalAlign=middle;spacingTop=-1;spacingLeft=3;spacingRight=3;rotatable=0;labelPosition=right;points=[];portConstraint=eastwest;strokeColor=inherit;" parent="xDa_9qn_PGSCsNxLzw7h-50" vertex="1">
          <mxGeometry y="52" width="210" height="8" as="geometry" />
        </mxCell>
        <mxCell id="xDa_9qn_PGSCsNxLzw7h-53" value="..." style="text;strokeColor=none;fillColor=none;align=left;verticalAlign=top;spacingLeft=4;spacingRight=4;overflow=hidden;rotatable=0;points=[[0,0.5],[1,0.5]];portConstraint=eastwest;whiteSpace=wrap;html=1;" parent="xDa_9qn_PGSCsNxLzw7h-50" vertex="1">
          <mxGeometry y="60" width="210" height="30" as="geometry" />
        </mxCell>
        <mxCell id="xDa_9qn_PGSCsNxLzw7h-54" value="ClassicStylePPTDocument" style="swimlane;fontStyle=1;align=center;verticalAlign=top;childLayout=stackLayout;horizontal=1;startSize=26;horizontalStack=0;resizeParent=1;resizeParentMax=0;resizeLast=0;collapsible=1;marginBottom=0;whiteSpace=wrap;html=1;" parent="WIyWlLk6GJQsqaUBKTNV-1" vertex="1">
          <mxGeometry x="1530" y="455" width="210" height="90" as="geometry" />
        </mxCell>
        <mxCell id="xDa_9qn_PGSCsNxLzw7h-55" value="..." style="text;strokeColor=none;fillColor=none;align=left;verticalAlign=top;spacingLeft=4;spacingRight=4;overflow=hidden;rotatable=0;points=[[0,0.5],[1,0.5]];portConstraint=eastwest;whiteSpace=wrap;html=1;" parent="xDa_9qn_PGSCsNxLzw7h-54" vertex="1">
          <mxGeometry y="26" width="210" height="26" as="geometry" />
        </mxCell>
        <mxCell id="xDa_9qn_PGSCsNxLzw7h-56" value="" style="line;strokeWidth=1;fillColor=none;align=left;verticalAlign=middle;spacingTop=-1;spacingLeft=3;spacingRight=3;rotatable=0;labelPosition=right;points=[];portConstraint=eastwest;strokeColor=inherit;" parent="xDa_9qn_PGSCsNxLzw7h-54" vertex="1">
          <mxGeometry y="52" width="210" height="8" as="geometry" />
        </mxCell>
        <mxCell id="xDa_9qn_PGSCsNxLzw7h-57" value="..." style="text;strokeColor=none;fillColor=none;align=left;verticalAlign=top;spacingLeft=4;spacingRight=4;overflow=hidden;rotatable=0;points=[[0,0.5],[1,0.5]];portConstraint=eastwest;whiteSpace=wrap;html=1;" parent="xDa_9qn_PGSCsNxLzw7h-54" vertex="1">
          <mxGeometry y="60" width="210" height="30" as="geometry" />
        </mxCell>
        <mxCell id="xDa_9qn_PGSCsNxLzw7h-58" value="" style="endArrow=block;endSize=16;endFill=0;html=1;rounded=0;edgeStyle=orthogonalEdgeStyle;" parent="WIyWlLk6GJQsqaUBKTNV-1" source="xDa_9qn_PGSCsNxLzw7h-46" target="xDa_9qn_PGSCsNxLzw7h-26" edge="1">
          <mxGeometry width="160" relative="1" as="geometry">
            <mxPoint x="1965" y="162.5" as="sourcePoint" />
            <mxPoint x="1450" y="87.5" as="targetPoint" />
            <Array as="points">
              <mxPoint x="1180" y="430" />
              <mxPoint x="1760" y="430" />
              <mxPoint x="1760" y="230" />
              <mxPoint x="1180" y="230" />
            </Array>
          </mxGeometry>
        </mxCell>
        <mxCell id="xDa_9qn_PGSCsNxLzw7h-59" value="" style="endArrow=block;endSize=16;endFill=0;html=1;rounded=0;edgeStyle=orthogonalEdgeStyle;" parent="WIyWlLk6GJQsqaUBKTNV-1" source="xDa_9qn_PGSCsNxLzw7h-50" target="xDa_9qn_PGSCsNxLzw7h-26" edge="1">
          <mxGeometry width="160" relative="1" as="geometry">
            <mxPoint x="1185" y="465" as="sourcePoint" />
            <mxPoint x="1185" y="190" as="targetPoint" />
            <Array as="points">
              <mxPoint x="1410" y="430" />
              <mxPoint x="1760" y="430" />
              <mxPoint x="1760" y="230" />
              <mxPoint x="1180" y="230" />
            </Array>
          </mxGeometry>
        </mxCell>
        <mxCell id="xDa_9qn_PGSCsNxLzw7h-60" value="" style="endArrow=block;endSize=16;endFill=0;html=1;rounded=0;edgeStyle=orthogonalEdgeStyle;" parent="WIyWlLk6GJQsqaUBKTNV-1" source="xDa_9qn_PGSCsNxLzw7h-54" target="xDa_9qn_PGSCsNxLzw7h-26" edge="1">
          <mxGeometry width="160" relative="1" as="geometry">
            <mxPoint x="1415" y="465" as="sourcePoint" />
            <mxPoint x="1185" y="190" as="targetPoint" />
            <Array as="points">
              <mxPoint x="1640" y="430" />
              <mxPoint x="1760" y="430" />
              <mxPoint x="1760" y="230" />
              <mxPoint x="1180" y="230" />
            </Array>
          </mxGeometry>
        </mxCell>
        <mxCell id="xDa_9qn_PGSCsNxLzw7h-61" value="Creates" style="endArrow=open;endSize=12;dashed=1;html=1;rounded=0;edgeStyle=orthogonalEdgeStyle;" parent="WIyWlLk6GJQsqaUBKTNV-1" source="xDa_9qn_PGSCsNxLzw7h-5" target="xDa_9qn_PGSCsNxLzw7h-46" edge="1">
          <mxGeometry width="160" relative="1" as="geometry">
            <mxPoint x="970" y="310" as="sourcePoint" />
            <mxPoint x="1080" y="310" as="targetPoint" />
          </mxGeometry>
        </mxCell>
        <mxCell id="xDa_9qn_PGSCsNxLzw7h-63" value="" style="endArrow=open;endSize=12;dashed=1;html=1;rounded=0;edgeStyle=orthogonalEdgeStyle;" parent="WIyWlLk6GJQsqaUBKTNV-1" source="xDa_9qn_PGSCsNxLzw7h-5" target="xDa_9qn_PGSCsNxLzw7h-46" edge="1">
          <mxGeometry x="-0.0133" width="160" relative="1" as="geometry">
            <mxPoint x="950" y="585" as="sourcePoint" />
            <mxPoint x="1625" y="630" as="targetPoint" />
            <Array as="points">
              <mxPoint x="980" y="500" />
              <mxPoint x="980" y="590" />
              <mxPoint x="1180" y="590" />
            </Array>
            <mxPoint as="offset" />
          </mxGeometry>
        </mxCell>
        <mxCell id="xDa_9qn_PGSCsNxLzw7h-64" value="" style="endArrow=open;endSize=12;dashed=1;html=1;rounded=0;edgeStyle=orthogonalEdgeStyle;" parent="WIyWlLk6GJQsqaUBKTNV-1" source="xDa_9qn_PGSCsNxLzw7h-5" target="xDa_9qn_PGSCsNxLzw7h-50" edge="1">
          <mxGeometry x="-0.0133" width="160" relative="1" as="geometry">
            <mxPoint x="1050" y="585" as="sourcePoint" />
            <mxPoint x="1270" y="630" as="targetPoint" />
            <Array as="points">
              <mxPoint x="980" y="500" />
              <mxPoint x="980" y="590" />
              <mxPoint x="1410" y="590" />
            </Array>
            <mxPoint as="offset" />
          </mxGeometry>
        </mxCell>
        <mxCell id="xDa_9qn_PGSCsNxLzw7h-65" value="" style="endArrow=open;endSize=12;dashed=1;html=1;rounded=0;edgeStyle=orthogonalEdgeStyle;" parent="WIyWlLk6GJQsqaUBKTNV-1" source="xDa_9qn_PGSCsNxLzw7h-5" target="xDa_9qn_PGSCsNxLzw7h-54" edge="1">
          <mxGeometry x="-0.0133" width="160" relative="1" as="geometry">
            <mxPoint x="970" y="510" as="sourcePoint" />
            <mxPoint x="1420" y="555" as="targetPoint" />
            <Array as="points">
              <mxPoint x="980" y="500" />
              <mxPoint x="980" y="590" />
              <mxPoint x="1640" y="590" />
            </Array>
            <mxPoint as="offset" />
          </mxGeometry>
        </mxCell>
        <mxCell id="xDa_9qn_PGSCsNxLzw7h-66" value="Creates" style="edgeLabel;html=1;align=center;verticalAlign=middle;resizable=0;points=[];" parent="xDa_9qn_PGSCsNxLzw7h-65" vertex="1" connectable="0">
          <mxGeometry x="-0.4703" relative="1" as="geometry">
            <mxPoint as="offset" />
          </mxGeometry>
        </mxCell>
        <mxCell id="xDa_9qn_PGSCsNxLzw7h-70" value="Creates" style="endArrow=open;endSize=12;dashed=1;html=1;rounded=0;edgeStyle=orthogonalEdgeStyle;" parent="WIyWlLk6GJQsqaUBKTNV-1" source="xDa_9qn_PGSCsNxLzw7h-1" target="xDa_9qn_PGSCsNxLzw7h-27" edge="1">
          <mxGeometry x="0.1379" width="160" relative="1" as="geometry">
            <mxPoint x="970" y="310" as="sourcePoint" />
            <mxPoint x="1415" y="355" as="targetPoint" />
            <Array as="points">
              <mxPoint x="980" y="300" />
              <mxPoint x="980" y="390" />
              <mxPoint x="1180" y="390" />
            </Array>
            <mxPoint as="offset" />
          </mxGeometry>
        </mxCell>
        <mxCell id="xDa_9qn_PGSCsNxLzw7h-71" value="MinimalisticStyleHtmlDocument" style="swimlane;fontStyle=1;align=center;verticalAlign=top;childLayout=stackLayout;horizontal=1;startSize=26;horizontalStack=0;resizeParent=1;resizeParentMax=0;resizeLast=0;collapsible=1;marginBottom=0;whiteSpace=wrap;html=1;" parent="WIyWlLk6GJQsqaUBKTNV-1" vertex="1">
          <mxGeometry x="1060" y="660" width="210" height="90" as="geometry" />
        </mxCell>
        <mxCell id="xDa_9qn_PGSCsNxLzw7h-72" value="..." style="text;strokeColor=none;fillColor=none;align=left;verticalAlign=top;spacingLeft=4;spacingRight=4;overflow=hidden;rotatable=0;points=[[0,0.5],[1,0.5]];portConstraint=eastwest;whiteSpace=wrap;html=1;" parent="xDa_9qn_PGSCsNxLzw7h-71" vertex="1">
          <mxGeometry y="26" width="210" height="26" as="geometry" />
        </mxCell>
        <mxCell id="xDa_9qn_PGSCsNxLzw7h-73" value="" style="line;strokeWidth=1;fillColor=none;align=left;verticalAlign=middle;spacingTop=-1;spacingLeft=3;spacingRight=3;rotatable=0;labelPosition=right;points=[];portConstraint=eastwest;strokeColor=inherit;" parent="xDa_9qn_PGSCsNxLzw7h-71" vertex="1">
          <mxGeometry y="52" width="210" height="8" as="geometry" />
        </mxCell>
        <mxCell id="xDa_9qn_PGSCsNxLzw7h-74" value="..." style="text;strokeColor=none;fillColor=none;align=left;verticalAlign=top;spacingLeft=4;spacingRight=4;overflow=hidden;rotatable=0;points=[[0,0.5],[1,0.5]];portConstraint=eastwest;whiteSpace=wrap;html=1;" parent="xDa_9qn_PGSCsNxLzw7h-71" vertex="1">
          <mxGeometry y="60" width="210" height="30" as="geometry" />
        </mxCell>
        <mxCell id="xDa_9qn_PGSCsNxLzw7h-75" value="MinimalisticStylePdfDocument" style="swimlane;fontStyle=1;align=center;verticalAlign=top;childLayout=stackLayout;horizontal=1;startSize=26;horizontalStack=0;resizeParent=1;resizeParentMax=0;resizeLast=0;collapsible=1;marginBottom=0;whiteSpace=wrap;html=1;" parent="WIyWlLk6GJQsqaUBKTNV-1" vertex="1">
          <mxGeometry x="1290" y="660" width="210" height="90" as="geometry" />
        </mxCell>
        <mxCell id="xDa_9qn_PGSCsNxLzw7h-76" value="..." style="text;strokeColor=none;fillColor=none;align=left;verticalAlign=top;spacingLeft=4;spacingRight=4;overflow=hidden;rotatable=0;points=[[0,0.5],[1,0.5]];portConstraint=eastwest;whiteSpace=wrap;html=1;" parent="xDa_9qn_PGSCsNxLzw7h-75" vertex="1">
          <mxGeometry y="26" width="210" height="26" as="geometry" />
        </mxCell>
        <mxCell id="xDa_9qn_PGSCsNxLzw7h-77" value="" style="line;strokeWidth=1;fillColor=none;align=left;verticalAlign=middle;spacingTop=-1;spacingLeft=3;spacingRight=3;rotatable=0;labelPosition=right;points=[];portConstraint=eastwest;strokeColor=inherit;" parent="xDa_9qn_PGSCsNxLzw7h-75" vertex="1">
          <mxGeometry y="52" width="210" height="8" as="geometry" />
        </mxCell>
        <mxCell id="xDa_9qn_PGSCsNxLzw7h-78" value="..." style="text;strokeColor=none;fillColor=none;align=left;verticalAlign=top;spacingLeft=4;spacingRight=4;overflow=hidden;rotatable=0;points=[[0,0.5],[1,0.5]];portConstraint=eastwest;whiteSpace=wrap;html=1;" parent="xDa_9qn_PGSCsNxLzw7h-75" vertex="1">
          <mxGeometry y="60" width="210" height="30" as="geometry" />
        </mxCell>
        <mxCell id="xDa_9qn_PGSCsNxLzw7h-79" value="MinimalisticStylePPTDocument" style="swimlane;fontStyle=1;align=center;verticalAlign=top;childLayout=stackLayout;horizontal=1;startSize=26;horizontalStack=0;resizeParent=1;resizeParentMax=0;resizeLast=0;collapsible=1;marginBottom=0;whiteSpace=wrap;html=1;" parent="WIyWlLk6GJQsqaUBKTNV-1" vertex="1">
          <mxGeometry x="1520" y="660" width="210" height="90" as="geometry" />
        </mxCell>
        <mxCell id="xDa_9qn_PGSCsNxLzw7h-80" value="..." style="text;strokeColor=none;fillColor=none;align=left;verticalAlign=top;spacingLeft=4;spacingRight=4;overflow=hidden;rotatable=0;points=[[0,0.5],[1,0.5]];portConstraint=eastwest;whiteSpace=wrap;html=1;" parent="xDa_9qn_PGSCsNxLzw7h-79" vertex="1">
          <mxGeometry y="26" width="210" height="26" as="geometry" />
        </mxCell>
        <mxCell id="xDa_9qn_PGSCsNxLzw7h-81" value="" style="line;strokeWidth=1;fillColor=none;align=left;verticalAlign=middle;spacingTop=-1;spacingLeft=3;spacingRight=3;rotatable=0;labelPosition=right;points=[];portConstraint=eastwest;strokeColor=inherit;" parent="xDa_9qn_PGSCsNxLzw7h-79" vertex="1">
          <mxGeometry y="52" width="210" height="8" as="geometry" />
        </mxCell>
        <mxCell id="xDa_9qn_PGSCsNxLzw7h-82" value="..." style="text;strokeColor=none;fillColor=none;align=left;verticalAlign=top;spacingLeft=4;spacingRight=4;overflow=hidden;rotatable=0;points=[[0,0.5],[1,0.5]];portConstraint=eastwest;whiteSpace=wrap;html=1;" parent="xDa_9qn_PGSCsNxLzw7h-79" vertex="1">
          <mxGeometry y="60" width="210" height="30" as="geometry" />
        </mxCell>
        <mxCell id="xDa_9qn_PGSCsNxLzw7h-83" value="" style="endArrow=block;endSize=16;endFill=0;html=1;rounded=0;edgeStyle=orthogonalEdgeStyle;" parent="WIyWlLk6GJQsqaUBKTNV-1" source="xDa_9qn_PGSCsNxLzw7h-71" target="xDa_9qn_PGSCsNxLzw7h-26" edge="1">
          <mxGeometry width="160" relative="1" as="geometry">
            <mxPoint x="1640" y="465" as="sourcePoint" />
            <mxPoint x="1185" y="190" as="targetPoint" />
            <Array as="points">
              <mxPoint x="1180" y="640" />
              <mxPoint x="1760" y="640" />
              <mxPoint x="1760" y="230" />
              <mxPoint x="1180" y="230" />
            </Array>
          </mxGeometry>
        </mxCell>
        <mxCell id="xDa_9qn_PGSCsNxLzw7h-84" value="" style="endArrow=block;endSize=16;endFill=0;html=1;rounded=0;edgeStyle=orthogonalEdgeStyle;" parent="WIyWlLk6GJQsqaUBKTNV-1" source="xDa_9qn_PGSCsNxLzw7h-75" target="xDa_9qn_PGSCsNxLzw7h-26" edge="1">
          <mxGeometry width="160" relative="1" as="geometry">
            <mxPoint x="1190" y="670" as="sourcePoint" />
            <mxPoint x="1185" y="190" as="targetPoint" />
            <Array as="points">
              <mxPoint x="1410" y="640" />
              <mxPoint x="1760" y="640" />
              <mxPoint x="1760" y="230" />
              <mxPoint x="1180" y="230" />
            </Array>
          </mxGeometry>
        </mxCell>
        <mxCell id="xDa_9qn_PGSCsNxLzw7h-85" value="" style="endArrow=block;endSize=16;endFill=0;html=1;rounded=0;edgeStyle=orthogonalEdgeStyle;" parent="WIyWlLk6GJQsqaUBKTNV-1" source="xDa_9qn_PGSCsNxLzw7h-79" target="xDa_9qn_PGSCsNxLzw7h-26" edge="1">
          <mxGeometry width="160" relative="1" as="geometry">
            <mxPoint x="1420" y="670" as="sourcePoint" />
            <mxPoint x="1190" y="190" as="targetPoint" />
            <Array as="points">
              <mxPoint x="1640" y="640" />
              <mxPoint x="1760" y="640" />
              <mxPoint x="1760" y="230" />
              <mxPoint x="1180" y="230" />
            </Array>
          </mxGeometry>
        </mxCell>
        <mxCell id="xDa_9qn_PGSCsNxLzw7h-86" value="Creates" style="endArrow=open;endSize=12;dashed=1;html=1;rounded=0;edgeStyle=orthogonalEdgeStyle;" parent="WIyWlLk6GJQsqaUBKTNV-1" source="xDa_9qn_PGSCsNxLzw7h-9" target="xDa_9qn_PGSCsNxLzw7h-71" edge="1">
          <mxGeometry width="160" relative="1" as="geometry">
            <mxPoint x="970" y="510" as="sourcePoint" />
            <mxPoint x="1080" y="510" as="targetPoint" />
          </mxGeometry>
        </mxCell>
        <mxCell id="xDa_9qn_PGSCsNxLzw7h-87" value="" style="endArrow=open;endSize=12;dashed=1;html=1;rounded=0;edgeStyle=orthogonalEdgeStyle;" parent="WIyWlLk6GJQsqaUBKTNV-1" source="xDa_9qn_PGSCsNxLzw7h-9" target="xDa_9qn_PGSCsNxLzw7h-79" edge="1">
          <mxGeometry x="-0.0133" width="160" relative="1" as="geometry">
            <mxPoint x="970" y="510" as="sourcePoint" />
            <mxPoint x="1650" y="555" as="targetPoint" />
            <Array as="points">
              <mxPoint x="980" y="705" />
              <mxPoint x="980" y="790" />
              <mxPoint x="1650" y="790" />
            </Array>
            <mxPoint as="offset" />
          </mxGeometry>
        </mxCell>
        <mxCell id="xDa_9qn_PGSCsNxLzw7h-89" value="" style="endArrow=open;endSize=12;dashed=1;html=1;rounded=0;edgeStyle=orthogonalEdgeStyle;" parent="WIyWlLk6GJQsqaUBKTNV-1" source="xDa_9qn_PGSCsNxLzw7h-9" target="xDa_9qn_PGSCsNxLzw7h-75" edge="1">
          <mxGeometry x="-0.0133" width="160" relative="1" as="geometry">
            <mxPoint x="970" y="715" as="sourcePoint" />
            <mxPoint x="1660" y="760" as="targetPoint" />
            <Array as="points">
              <mxPoint x="980" y="705" />
              <mxPoint x="980" y="790" />
              <mxPoint x="1410" y="790" />
            </Array>
            <mxPoint as="offset" />
          </mxGeometry>
        </mxCell>
        <mxCell id="xDa_9qn_PGSCsNxLzw7h-90" value="Creates" style="endArrow=open;endSize=12;dashed=1;html=1;rounded=0;edgeStyle=orthogonalEdgeStyle;" parent="WIyWlLk6GJQsqaUBKTNV-1" source="xDa_9qn_PGSCsNxLzw7h-9" target="xDa_9qn_PGSCsNxLzw7h-71" edge="1">
          <mxGeometry x="-0.0133" width="160" relative="1" as="geometry">
            <mxPoint x="970" y="715" as="sourcePoint" />
            <mxPoint x="1420" y="760" as="targetPoint" />
            <Array as="points">
              <mxPoint x="980" y="705" />
              <mxPoint x="980" y="790" />
              <mxPoint x="1180" y="790" />
            </Array>
            <mxPoint as="offset" />
          </mxGeometry>
        </mxCell>
      </root>
    </mxGraphModel>
  </diagram>
</mxfile>
